<svg width="135" height="50" xmlns="http://www.w3.org/2000/svg">
  <defs>
    <linearGradient x1="-2177.648%" y1="-157.383%" x2="764.675%" y2="116.594%" id="a">
      <stop stop-color="#0077E5" offset="0%"/>
      <stop stop-color="#0475E5" offset="12.44%"/>
      <stop stop-color="#116EE3" offset="25.31%"/>
      <stop stop-color="#2563E1" offset="38.39%"/>
      <stop stop-color="#4254DD" offset="51.6%"/>
      <stop stop-color="#6740D9" offset="64.79%"/>
      <stop stop-color="#7837D7" offset="70%"/>
      <stop stop-color="#7837D1" offset="76.6%"/>
      <stop stop-color="#7838C1" offset="85.22%"/>
      <stop stop-color="#783AA6" offset="94.92%"/>
      <stop stop-color="#783B95" offset="100%"/>
    </linearGradient>
    <linearGradient x1="-24.682%" y1="41.9%" x2="565.911%" y2="179.825%" id="b">
      <stop stop-color="#0077E5" offset="0%"/>
      <stop stop-color="#0475E5" offset="12.44%"/>
      <stop stop-color="#116EE3" offset="25.31%"/>
      <stop stop-color="#2563E1" offset="38.39%"/>
      <stop stop-color="#4254DD" offset="51.6%"/>
      <stop stop-color="#6740D9" offset="64.79%"/>
      <stop stop-color="#7837D7" offset="70%"/>
      <stop stop-color="#7837D1" offset="76.6%"/>
      <stop stop-color="#7838C1" offset="85.22%"/>
      <stop stop-color="#783AA6" offset="94.92%"/>
      <stop stop-color="#783B95" offset="100%"/>
    </linearGradient>
    <linearGradient x1="-624.472%" y1="18.433%" x2="2317.851%" y2="156.201%" id="c">
      <stop stop-color="#0077E5" offset="0%"/>
      <stop stop-color="#0475E5" offset="12.44%"/>
      <stop stop-color="#116EE3" offset="25.31%"/>
      <stop stop-color="#2563E1" offset="38.39%"/>
      <stop stop-color="#4254DD" offset="51.6%"/>
      <stop stop-color="#6740D9" offset="64.79%"/>
      <stop stop-color="#7837D7" offset="70%"/>
      <stop stop-color="#7837D1" offset="76.6%"/>
      <stop stop-color="#7838C1" offset="85.22%"/>
      <stop stop-color="#783AA6" offset="94.92%"/>
      <stop stop-color="#783B95" offset="100%"/>
    </linearGradient>
    <linearGradient x1="-464.264%" y1="-78.764%" x2="126.329%" y2="58.536%" id="d">
      <stop stop-color="#0077E5" offset="0%"/>
      <stop stop-color="#0475E5" offset="12.44%"/>
      <stop stop-color="#116EE3" offset="25.31%"/>
      <stop stop-color="#2563E1" offset="38.39%"/>
      <stop stop-color="#4254DD" offset="51.6%"/>
      <stop stop-color="#6740D9" offset="64.79%"/>
      <stop stop-color="#7837D7" offset="70%"/>
      <stop stop-color="#7837D1" offset="76.6%"/>
      <stop stop-color="#7838C1" offset="85.22%"/>
      <stop stop-color="#783AA6" offset="94.92%"/>
      <stop stop-color="#783B95" offset="100%"/>
    </linearGradient>
    <linearGradient x1="-163.087%" y1="-36.51%" x2="428.576%" y2="182.871%" id="e">
      <stop stop-color="#0077E5" offset="0%"/>
      <stop stop-color="#0475E5" offset="12.44%"/>
      <stop stop-color="#116EE3" offset="25.31%"/>
      <stop stop-color="#2563E1" offset="38.39%"/>
      <stop stop-color="#4254DD" offset="51.6%"/>
      <stop stop-color="#6740D9" offset="64.79%"/>
      <stop stop-color="#7837D7" offset="70%"/>
      <stop stop-color="#7837D1" offset="76.6%"/>
      <stop stop-color="#7838C1" offset="85.22%"/>
      <stop stop-color="#783AA6" offset="94.92%"/>
      <stop stop-color="#783B95" offset="100%"/>
    </linearGradient>
    <linearGradient x1="-2063.969%" y1="-734.188%" x2="878.355%" y2="356.786%" id="f">
      <stop stop-color="#0077E5" offset="0%"/>
      <stop stop-color="#0475E5" offset="12.44%"/>
      <stop stop-color="#116EE3" offset="25.31%"/>
      <stop stop-color="#2563E1" offset="38.39%"/>
      <stop stop-color="#4254DD" offset="51.6%"/>
      <stop stop-color="#6740D9" offset="64.79%"/>
      <stop stop-color="#7837D7" offset="70%"/>
      <stop stop-color="#7837D1" offset="76.6%"/>
      <stop stop-color="#7838C1" offset="85.22%"/>
      <stop stop-color="#783AA6" offset="94.92%"/>
      <stop stop-color="#783B95" offset="100%"/>
    </linearGradient>
    <linearGradient x1="-742.058%" y1="-96.507%" x2="441.267%" y2="122.477%" id="g">
      <stop stop-color="#0077E5" offset="0%"/>
      <stop stop-color="#0475E5" offset="12.44%"/>
      <stop stop-color="#116EE3" offset="25.31%"/>
      <stop stop-color="#2563E1" offset="38.39%"/>
      <stop stop-color="#4254DD" offset="51.6%"/>
      <stop stop-color="#6740D9" offset="64.79%"/>
      <stop stop-color="#7837D7" offset="70%"/>
      <stop stop-color="#7837D1" offset="76.6%"/>
      <stop stop-color="#7838C1" offset="85.22%"/>
      <stop stop-color="#783AA6" offset="94.92%"/>
      <stop stop-color="#783B95" offset="100%"/>
    </linearGradient>
    <linearGradient x1="-266.43%" y1="-67.217%" x2="324.954%" y2="152.163%" id="h">
      <stop stop-color="#0077E5" offset="0%"/>
      <stop stop-color="#0475E5" offset="12.44%"/>
      <stop stop-color="#116EE3" offset="25.31%"/>
      <stop stop-color="#2563E1" offset="38.39%"/>
      <stop stop-color="#4254DD" offset="51.6%"/>
      <stop stop-color="#6740D9" offset="64.79%"/>
      <stop stop-color="#7837D7" offset="70%"/>
      <stop stop-color="#7837D1" offset="76.6%"/>
      <stop stop-color="#7838C1" offset="85.22%"/>
      <stop stop-color="#783AA6" offset="94.92%"/>
      <stop stop-color="#783B95" offset="100%"/>
    </linearGradient>
  </defs>
  <g fill="none" fill-rule="evenodd">
    <path d="M11.405 31.736c3.76 0 6.86-3.058 6.86-6.86 0-3.76-3.058-6.86-6.86-6.86-3.76 0-6.86 3.058-6.86 6.86.042 3.802 3.1 6.86 6.86 6.86zM130 24.917a6.843 6.843 0 0 0-6.86-6.86c-3.76 0-6.859 3.059-6.859 6.86a6.843 6.843 0 0 0 6.86 6.86c3.76-.041 6.859-3.1 6.859-6.86z"/>
    <path fill="url(#a)" fill-rule="nonzero" d="M103.843 18.058h4.587v18.264h-4.587z"/>
    <path d="M4.587 34.008a11.338 11.338 0 0 0 6.86 2.314c6.28 0 11.404-5.124 11.404-11.405 0-6.28-5.124-11.405-11.405-11.405-2.562 0-4.958.868-6.86 2.314V.041H0v36.281h4.587v-2.314zm0-9.132c0-3.76 3.058-6.86 6.86-6.86 3.76 0 6.859 3.058 6.859 6.86 0 3.76-3.058 6.86-6.86 6.86a6.843 6.843 0 0 1-6.86-6.86z" fill="url(#b)" fill-rule="nonzero"/>
    <path fill="url(#c)" fill-rule="nonzero" d="M26.157 0h4.587v36.322h-4.587z"/>
    <path d="M130 34.008v15.91h4.587V13.47H130v2.314a11.338 11.338 0 0 0-6.86-2.314c-6.28 0-11.404 5.124-11.404 11.405s5.124 11.405 11.404 11.405c2.562.041 4.918-.826 6.86-2.273zm-13.719-9.09c0-3.761 3.058-6.86 6.86-6.86 3.76 0 6.859 3.058 6.859 6.86 0 3.76-3.058 6.859-6.86 6.859-3.76-.041-6.859-3.1-6.859-6.86z" fill="url(#d)" fill-rule="nonzero"/>
    <path d="M35.29 13.471v11.405c0 6.281 5.123 11.405 11.404 11.405S58.1 31.157 58.1 24.876V13.471h-4.587v11.405c0 3.76-3.057 6.86-6.86 6.86-3.76 0-6.859-3.058-6.859-6.86V13.471H35.29z" fill="url(#e)" fill-rule="nonzero"/>
    <path fill="url(#f)" fill-rule="nonzero" d="M103.843 8.926h4.587v4.587h-4.587z"/>
    <path fill="url(#g)" fill-rule="nonzero" d="M87.81 18.058v18.264h4.545V18.058h6.86V13.47H87.81z"/>
    <path d="M72.893 28.347H83.76c.785-2.273.496-4.587.496-4.587-.578-5.743-5.454-10.289-11.363-10.289-6.281 0-11.405 5.124-11.405 11.405s5.124 11.405 11.405 11.405v-4.545c-3.76 0-6.86-3.058-6.86-6.86 0-3.76 3.058-6.86 6.86-6.86 3.388 0 6.198 2.48 6.735 5.703h-6.735v4.628z" fill="url(#h)" fill-rule="nonzero"/>
  </g>
</svg>