<?xml version="1.0" encoding="utf-8"?>
<!-- Generator: Adobe Illustrator 27.5.0, SVG Export Plug-In . SVG Version: 6.00 Build 0)  -->
<svg version="1.1" id="Laag_1" xmlns="http://www.w3.org/2000/svg" xmlns:xlink="http://www.w3.org/1999/xlink" x="0px" y="0px"
	 viewBox="0 0 467.52 96.95" style="enable-background:new 0 0 467.52 96.95;" xml:space="preserve">
<style type="text/css">
	.st0{fill:#B6E096;}
	.st1{fill:#3C4A34;}
</style>
<g>
	<path class="st0" d="M0,55.04C0,26.98,11.8,9.41,44.33,9.41c32.62,0,44.33,17.56,44.33,45.63c0,28.07-11.71,41.91-44.33,41.91
		C11.8,96.95,0,83.11,0,55.04z"/>
	<g>
		<path class="st1" d="M338.27,68.19c-2.81-0.04-7.6,7.49-19.09,7.35c-12.43-0.16-19.01-10.74-19.18-22.46
			c-0.05-3.51-0.04-5.16,0.7-9.15c1.51-8.24,7.59-15.75,16.97-15.63c8.32,0.11,12.94,6.31,12.87,11.44
			c-0.06,4.84-5.73,8.52-15.82,10.34c-1.59,0.29-7.52,2.56-4.88,4.44c1.78,1.26,27.7,4.3,32.61-10.49
			c2.47-7.45-6.76-20.96-23.65-21.18c-18.17-0.23-30.57,15.35-30.78,31.64c-0.2,15.29,10.18,28.82,28.12,29.05
			c15.59,0.2,24.64-9.84,24.68-12.97C340.84,69,339.67,68.2,338.27,68.19z"/>
		<path class="st1" d="M67.17,68.19c-2.81-0.04-7.6,7.49-19.09,7.35C35.64,75.37,29.06,64.79,28.9,53.07
			c-0.05-3.51-0.04-5.16,0.7-9.15c1.51-8.24,7.59-15.75,16.97-15.63c8.32,0.11,12.94,6.31,12.87,11.44
			c-0.06,4.84-5.73,8.52-15.82,10.34c-1.59,0.29-7.52,2.56-4.88,4.44c1.78,1.26,27.7,4.3,32.61-10.49
			c2.47-7.45-6.76-20.96-23.65-21.18C29.52,22.6,17.13,38.18,16.92,54.48C16.72,69.77,27.1,83.3,45.04,83.53
			c15.59,0.2,24.64-9.84,24.68-12.97C69.74,69,68.57,68.2,67.17,68.19z"/>
		<path class="st1" d="M135.7,81.01c0,1.11-1,2.11-3,2.11h-7.34c-2.67,0-4.67-0.33-6.68-1.78c-2.78-2-5.34-6.45-11.02-14.69
			c-5.23-7.57-7.23-10.46-9.35-10.46c-0.89,0-1.89,0.89-3,1.89l-3,2.78c-0.33,0.33-0.45,0.67-0.45,1.22v1.22
			c0,5.45,0,9.46,1.34,11.79c2.23,3.9,5.68,3.34,5.68,5.9c0,1.56-1.34,2.11-3.12,2.11H76.84c-1.78,0-3.12-0.56-3.12-2.11
			c0-2.45,3.89-2.34,5.79-6.12c1.22-2.34,1.34-6.34,1.34-11.68V17.02c0-2.89-0.11-4.56-1.11-6.01c-0.78-1.11-2-1.78-3.67-2.34
			c-1.67-0.56-2.78-1.11-2.78-2.34c0-1.22,0.45-2,3.23-2.56C80.51,3,83.85,2.11,87.3,0.56C88.08,0.22,88.74,0,89.41,0
			c1.45,0,2.45,0.78,2.45,2.89V52.3c0,0.45,0.22,0.56,0.33,0.56c0.22,0,0.33-0.11,0.56-0.33c3.56-3.12,9.12-8.12,11.8-10.68
			c4.12-4.01,7.34-7.23,7.34-9.57c0-2.78-3.56-2.45-3.56-5.01c0-1.67,1.34-2.23,3.45-2.23h19.14c2,0,2.89,0.67,2.89,2
			c0,2-2.45,2.45-4.78,3.45c-6.9,2.89-13.24,8.68-24.15,18.81c-0.22,0.22-0.45,0.45-0.45,0.78c0,0.33,0.33,0.56,0.56,0.56
			c0.67,0,1-0.56,2-0.56c3.23,0,6.9,5.45,11.91,12.91c7.9,11.57,10.46,14.02,13.91,15.47C134.37,79.11,135.7,79.67,135.7,81.01z"/>
		<path class="st1" d="M190.12,52.76c0,16.69-11.68,30.6-28.26,30.6c-16.91,0-28.37-11.68-28.37-29.82
			c0-16.8,11.79-30.71,28.71-30.71C179.88,22.83,190.12,35.96,190.12,52.76z M160.63,28.39c-9.79,0-15.8,8.68-15.8,21.03
			c0,15.36,7.23,28.15,18.14,28.15c11.02,0,15.8-10.68,15.8-21.59C178.77,43.19,173.09,28.39,160.63,28.39z"/>
		<path class="st1" d="M401.21,63.38c0,5.79,0.33,10.01,1.67,12.13c1.89,2.89,5.45,3.34,5.45,5.34c0,1.56-1.45,2.11-3.12,2.11
			h-18.69c-1.67,0-3.12-0.56-3.12-2.11c0-2.23,3.78-2.34,5.56-5.79c1.11-2.11,1.45-6.12,1.45-11.68V46.02
			c0-9.68-5.12-13.91-11.68-13.91c-3.34,0-6.9,1.22-9.57,3.89c-4.23,4.23-5.23,10.24-5.23,27.37c0,5.68,0.33,9.79,1.56,11.91
			c1.89,3.23,5.45,3.56,5.45,5.56c0,1.56-1.34,2.11-3,2.11h-18.47c-1.67,0-3-0.56-3-2.11c0-2.34,4.01-2.45,5.68-6.01
			c1-2.23,1.34-6.01,1.34-11.46v-21.7c0-3.56-0.11-5.56-1.11-7.01c-1.78-2.67-6.45-2.11-6.45-4.56c0-1.22,0.56-2,3.12-2.56
			c4.12-0.89,7.46-2,10.35-3.34c0.78-0.33,1.45-0.56,2.11-0.56c1.45,0,2.45,1,2.45,3.12v6.57c0,0.33,0.11,0.56,0.33,0.56
			s0.33-0.22,0.56-0.56c3.45-5.12,9.68-9.68,18.03-9.68c6.34,0,11.57,2.78,14.58,6.9c2.45,3.34,3.78,7.34,3.78,15.13V63.38z"/>
		<path class="st1" d="M467.52,77.95c0,1.34-0.78,2.11-3,2.56c-4.34,1-7.45,2-10.24,3.12c-1.11,0.45-1.78,0.56-2.34,0.56
			c-1.56,0-2.45-0.89-2.45-3c0,0,0-6.57,0-6.9c0-0.22-0.11-0.33-0.33-0.33s-0.33,0.22-0.56,0.56c-3.67,5.68-10.24,9.68-18.03,9.68
			c-5.56,0-10.46-2-13.91-6.23c-3.12-3.78-4.12-9.01-4.12-15.69V43.57c0-4.78,0-7.34-1.11-9.01c-1.78-2.78-6.34-2-6.34-4.9
			c0-1.11,0.78-1.89,3-2.34c4.45-1,7.01-1.78,10.01-3c1.11-0.45,1.67-0.67,2.56-0.67c1.45,0,2.45,0.89,2.45,2.89v35.5
			c0,7.68,3.56,13.69,11.57,13.69c3.23,0,6.68-1.11,9.35-3.78c4.12-4.12,5.45-10.35,5.45-27.37c0-5.34,0-8.35-1.11-10.01
			c-1.89-2.78-6.34-2-6.34-4.67c0-1.22,0.56-2,3-2.56c4.34-1,7.45-1.89,10.46-3.23c0.78-0.33,1.45-0.56,2.11-0.56
			c1.45,0,2.45,1,2.45,3v37.72c0,4.78,0,7.34,1.11,9.12C462.73,75.84,467.52,75.39,467.52,77.95z"/>
		<path class="st1" d="M285.58,73.55c0,1.32-1.31,3.29-3.95,5.7c-2.74,2.41-6.36,4.06-9.64,4.06c-3.73,0-7.89-2.19-7.89-8.55
			c0-2.19,0.33-4.6,0.88-7.23c1.42-7.12,5.92-24.55,5.92-29.7c0-3.4-1.32-5.7-4.71-5.7c-3.84,0-9.1,4.06-15.34,15.12
			c-5.04,8.88-8,17.32-10.08,26.19l-1.64,7.92c-0.22,0.99-0.66,1.42-1.86,1.64l-6.36,0.19c-0.66,0.11-0.77,0.11-0.99,0.11
			c-0.88,0-1.42-0.55-1.42-1.32c0-0.11,0-0.22,0.11-0.77l7.34-35.62c0.66-3.18,1.1-5.81,1.1-7.89c0-3.62-1.42-5.59-4.6-5.59
			c-4.06,0-9.32,4.06-15.56,15.12c-5.04,8.88-7.78,16.77-9.97,26.19l-1.64,7.92c-0.22,0.99-0.66,1.42-1.86,1.64l-6.25,0.19
			c-0.77,0.11-0.99,0.11-1.21,0.11c-0.77,0-1.32-0.44-1.32-1.21c0-0.11,0-0.33,0.11-0.88l7.89-38.25c0.66-3.29,1.1-5.59,1.1-7.23
			c0-1.86-0.66-2.96-1.97-3.51c-1.97-0.88-4.71-1.21-4.71-3.07c0-1.53,1.1-2.3,3.84-2.63c3.95-0.55,7.78-1.42,11.07-2.41
			c0.77-0.22,1.32-0.44,1.97-0.44c1.42,0,2.41,0.66,2.41,1.97c0,0.22,0,0.33-0.11,0.88l-3.29,16.66c-0.11,0.55-0.11,0.66-0.11,0.77
			c0,0.22,0.22,0.22,0.33,0.22c0.11,0,0.22,0,0.33-0.22c6.8-12.39,14.8-20.28,23.24-20.28c6.91,0,10.85,4.49,10.85,12.38
			c0,2.41-0.33,5.15-0.55,6.91c-0.11,0.77-0.11,0.88-0.11,0.88c0,0.33,0.22,0.33,0.33,0.33s0.22,0,0.55-0.55
			c6.69-12.06,14.36-19.95,22.69-19.95c7.12,0,11.18,4.6,11.18,11.95c0,5.15-1.64,12.06-3.29,19.62
			c-2.08,9.97-3.18,14.91-3.18,17.43c0,1.42,0.44,2.74,1.97,2.74c2.85,0,4.6-3.51,6.91-3.51C284.93,71.9,285.58,72.56,285.58,73.55z
			"/>
	</g>
</g>
</svg>
