<svg preserveAspectRatio="xMidYMid meet" data-bbox="15.656 67.725 167.931 78.619" viewBox="15.656 67.725 167.931 78.619" height="200" width="200" xmlns="http://www.w3.org/2000/svg" data-type="color" role="presentation" aria-hidden="true" aria-labelledby="svgcid-bsp648-zgl68d"><title id="svgcid-bsp648-zgl68d"/><g><path fill="#F6CF0A" d="M76.859 122.9 103 135v-33.1l-25.141 7-1 14z" data-color="1"/><path opacity=".2" d="M76.859 122.9 103 135v-33.1l-25.141 7-1 14z"/><path d="M85.951 117.458c.027-.146.073-.3.116-.453.029-.102.05-.201.086-.307.061-.174.145-.358.227-.54.042-.093.073-.182.12-.277.141-.283.306-.576.5-.881.118-.185.252-.356.396-.517.046-.052.1-.097.149-.147a4.24 4.24 0 0 1 .326-.301c.064-.051.133-.098.2-.146a4.343 4.343 0 0 1 .586-.358 6.051 6.051 0 0 1 1.134-.441c.081-.023.16-.048.243-.068.198-.049.405-.09.617-.126.059-.01.114-.023.173-.032a12.957 12.957 0 0 1 1.841-.137l.143.002a18.563 18.563 0 0 1 1.107.034c.278.016.562.036.853.063l.262.026c.298.031.602.066.912.108l.244.033c.341.048.69.102 1.046.162l.157.026c1.713.296 3.589.728 5.608 1.268 20.371 5.458 55.173 22.009 80.59 22.009v-45C153 91.459 96 59 89 70c-3.391 4.521-3.123 6.997-3.122 31.144-4.518.414-10.1.168-16.904-1.073C40.273 94.837 30 84.488 15.656 84.488v45c13.656 0 24.617 10.349 53.318 15.583C96 150 104.102 139.428 103 133.592c-1.742-9.224-17.139-9.317-17.116-15.429 0-.13.017-.266.031-.401.011-.101.016-.2.036-.304z" fill="#0558B5" data-color="2"/><path d="M103.083 134.362c-.002-.047-.002-.096-.005-.142a5.742 5.742 0 0 0-.078-.627c-1.188-6.292-8.732-8.334-13.401-10.936-5.168.96-11.952.997-20.625-.585-28.7-5.234-38.974-15.583-53.318-15.583v23c13.656 0 24.617 10.349 53.318 15.583 1.071.195 2.101.358 3.113.506.272.04.541.076.809.113a77.92 77.92 0 0 0 2.442.294c.165.017.335.039.497.054.95.092 1.869.161 2.761.21.159.009.312.013.468.021.773.037 1.523.058 2.253.064.144.001.291.004.433.004a46.535 46.535 0 0 0 4.799-.234l.226-.024c10.921-1.189 15.558-6.255 16.228-10.377l.011-.072a6.43 6.43 0 0 0 .064-.606l.008-.125a5.663 5.663 0 0 0-.003-.538z" fill="#F6CF0A" data-color="1"/><path d="M105.364 92.116v-.002C98 90 85.875 85.623 85.873 93.81c.001 2.198.005 4.623.005 7.334h-.005v16.314l.078-.002c.027-.146.073-.299.116-.451.029-.102.05-.201.086-.307.061-.174.145-.358.227-.54.042-.093.073-.182.12-.277.141-.283.306-.576.5-.881.118-.185.252-.356.396-.517.046-.052.1-.097.149-.147a4.24 4.24 0 0 1 .326-.301c.064-.051.133-.098.2-.146a4.343 4.343 0 0 1 .586-.358 6.051 6.051 0 0 1 1.134-.441c.081-.023.16-.048.243-.068.198-.049.405-.09.617-.126.059-.01.114-.023.173-.032a12.957 12.957 0 0 1 1.841-.137l.143.002a18.563 18.563 0 0 1 1.107.034c.278.016.562.036.853.063l.262.026c.298.031.602.066.912.108l.244.033c.341.048.69.102 1.046.162l.157.026c1.713.296 3.589.728 5.608 1.268v.001c20.371 5.457 55.172 22.008 80.59 22.008v-23c-21.03.001-56.379-15.33-78.223-21.342z" fill="#F6CF0A" data-color="1"/><g opacity=".1"><path d="M85.884 118.163c0-.13.017-.266.031-.401.011-.101.016-.2.035-.304.027-.146.073-.3.116-.453-.043.152-.089.305-.116.451l-.078.002v-16.314a48.707 48.707 0 0 1-5.873.156v45.011c15.812.507 22.19-5.699 23-10.587v-2.131c-1.741-9.225-17.138-9.318-17.115-15.43z"/><path d="M85.874 95.218 85.873 94l.001 1.218z"/><path d="m85.875 95.566.002 2.255-.002-2.255z"/></g></g></svg>