<?xml version="1.0" encoding="UTF-8"?>
<svg id="Layer_2" data-name="Layer 2" xmlns="http://www.w3.org/2000/svg" viewBox="0 0 169.91 47.1">
  <defs>
    <style>
      .cls-1 {
        fill: #0561a8;
      }
    </style>
  </defs>
  <g id="Laag_1" data-name="Laag 1">
    <g>
      <path class="cls-1" d="M.1,17.9c0-.3,0-3.7,2.4-6.2,1.7-1.7,3.9-2.6,6.8-2.6h13.6c2.9,0,5.2.9,6.9,2.6,2.5,2.5,2.4,5.8,2.4,6.2v18.6c0,1.1-.9,2.1-2.1,2.1s-2.1-1-2.1-2.1v-18.6c0-.1,0-2-1.3-3.2-.8-.8-2.1-1.3-3.8-1.3h-13.6c-1.7,0-3,.5-3.8,1.3-1.3,1.3-1.3,3.2-1.3,3.2v18.7c0,1.1-1,2.1-2.1,2.1s-2.1-1-2.1-2.1v-18.7h.1Z"/>
      <path class="cls-1" d="M42.6,10.5c0-1.1,1-2.1,2.1-2.1,1.2,0,2.1,1,2.1,2.1v26.1c0,1.1-1,2.1-2.1,2.1-1.2,0-2.1-1-2.1-2.1V10.5Z"/>
      <path class="cls-1" d="M83.6,27c-2.3,2.2-5.9,2-6,2h-16.2v-11.8c0-.8.2-2.4,1.2-3.5.7-.7,1.7-1.1,3.1-1.1h11.7s3.9-.2,6.3,2.1c1.4,1.4,2.1,3.5,2.1,6.2,0,2.8-.7,4.8-2.2,6.1M61.5,33.3h15.9c.2,0,5.4.3,9.1-3.1,2.3-2.2,3.5-5.3,3.5-9.2s-1.2-7.2-3.5-9.4c-3.8-3.5-9.2-3.2-9.3-3.2h-11.6c-3.3,0-5.2,1.3-6.2,2.5-2.5,2.7-2.2,6.4-2.2,6.7v27.4c0,1.2,1,2.1,2.1,2.1,1.2,0,2.1-1,2.1-2.1l.1-11.7Z"/>
      <path class="cls-1" d="M143.5,20.1c2.3-2.1,5.9-2,6-2h16.1v11.8c0,.8-.2,2.4-1.1,3.4-.7.7-1.6,1.1-3,1.1h-11.7s-3.8.2-6.3-2.1c-1.4-1.4-2.2-3.4-2.1-6.2-.1-2.6.6-4.7,2.1-6M165.6,13.9h-15.9c-.2,0-5.4-.3-9.1,3.1-2.3,2.2-3.6,5.3-3.6,9.2s1.2,7.2,3.6,9.4c3.8,3.6,9.2,3.2,9.3,3.2h11.6c3.2,0,5.2-1.3,6.1-2.5,2.6-2.7,2.3-6.4,2.3-6.7V2.1c0-1.1-.9-2.1-2.1-2.1s-2.1,1-2.1,2.1l-.1,11.8Z"/>
      <path class="cls-1" d="M101.6,17.4c0-.8.4-4.4,6.5-4.4l15.3-.1c2.1,0,3.8,1.7,3.8,3.8s-1.7,3.8-3.8,3.8l-21.9-.1v-3h.1ZM128.4,34.4h-21.2s-2.5.1-4.1-1.4c-1-1-1.4-2.4-1.4-4.3v-4h21.8c4.5,0,8-3.6,8-8s-3.6-8-8-8h-15.3c-3.6,0-6.4,1-8.4,2.9-2.4,2.4-2.5,5.4-2.5,5.7v11.3c0,3.1.9,5.6,2.8,7.4,2.9,2.8,6.9,2.6,7.2,2.6h21.1c1.2,0,2.2-1,2.2-2.1s-1-2.1-2.2-2.1"/>
    </g>
  </g>
</svg>