<svg version="1.2" xmlns="http://www.w3.org/2000/svg" viewBox="0 0 162 46" width="162" height="46">
	<style>
		.s0 { opacity: 1;fill: #6e7a67 } 
		.s1 { opacity: 1;fill: #e3b32d } 
		.s2 { fill: #af8d39 } 
	</style>
	<g id="Background">
		<path id="Path 0" fill-rule="evenodd" class="s0" d="m60 9.1c1.92-0.05 5.08 0.34 7 0.86 1.92 0.52 4.23 1.75 5.13 2.74 0.9 0.99 1.91 2.81 2.25 4.05 0.58 2.12 0.32 2.25-4.38 2.25-2.75 0-5.9-0.56-7-1.25-1.49-0.93-2.46-0.97-3.75-0.14-1.39 0.88-1.8 2.76-2 9.25-0.22 7.28-0.04 8.25 1.75 9.14 1.1 0.55 2.67 0.77 3.5 0.5 0.83-0.27 1.5-0.95 1.5-1.5 0-0.55 2.47-1 5.5-1 4.22 0 5.5 0.35 5.5 1.5 0 0.83-1.31 2.96-2.92 4.75-2.86 3.19-3.08 3.25-11.48 3.25-8.01 0-8.73-0.17-11.33-2.77-2.62-2.62-2.79-3.34-3.06-13-0.27-9.16-0.07-10.57 1.89-13.44 1.2-1.77 3.59-3.64 5.29-4.16 1.71-0.52 4.69-0.99 6.61-1.03zm32 0c1.92-0.05 5.19 0.36 7.25 0.91 2.55 0.67 4.39 2.03 5.75 4.24 1.57 2.56 1.99 5.01 2 11.5 0 4.64-0.59 9.67-1.35 11.5-0.73 1.79-2.16 3.92-3.16 4.75-1.14 0.93-4.5 1.62-8.91 1.81-5.34 0.24-7.94-0.13-10.58-1.5-2.35-1.22-3.89-2.96-4.69-5.31-0.82-2.41-0.9-4.67-0.25-7.25 0.52-2.06 1.95-4.43 3.19-5.26 1.41-0.94 4.58-1.5 8.5-1.5 5.81 0.01 6.23-0.14 6-2.14-0.14-1.18-1.04-2.64-2-3.25-1.29-0.82-2.26-0.78-3.75 0.15-1.1 0.69-4.25 1.25-7 1.25q-4.99 0-5.03-1.25c-0.02-0.69 0.86-2.48 1.95-3.99 1.1-1.5 3.48-3.15 5.29-3.66 1.81-0.5 4.87-0.96 6.79-1zm-4.17 23.57c0.1 1.36 1.19 2.85 2.62 3.58 2.03 1.04 2.72 0.99 4.04-0.25 0.88-0.83 1.58-2.74 1.55-4.25-0.03-2.44-0.41-2.75-3.37-2.75-1.84 0-3.71 0.3-4.17 0.67-0.46 0.36-0.76 1.71-0.67 3zm36.42-23.58c1.51-0.05 3.87 0.36 7.75 1.91l-2 3c-1.11 1.67-2.89 3-4 3-1.1 0-2.68 1.01-3.51 2.25-1.12 1.67-1.5 5.13-1.49 24.75l-9.5-0.5v-14.15c0-11.46 0.31-14.55 1.61-16.26 0.89-1.17 3.14-2.52 5-3.01 1.86-0.5 4.63-0.94 6.14-0.99zm23.25 0.06c2.2-0.02 5.57 0.5 7.5 1.16 2.38 0.81 4.06 2.31 5.25 4.69 1.05 2.11 1.75 5.78 1.75 15h-9.5c-8.83 0-9.5 0.14-9.5 2 0 1.1 0.68 2.67 1.5 3.5 0.82 0.83 2.06 1.52 2.75 1.54 0.69 0.03 1.93-0.67 2.75-1.54 0.98-1.03 3.16-1.57 6.25-1.54 2.61 0.02 4.75 0.49 4.75 1.04 0 0.55-0.45 2.12-1 3.5-0.55 1.38-2.57 3.17-4.5 4-1.93 0.83-5.75 1.5-8.5 1.5-2.75 0-6.57-0.67-8.5-1.5-1.93-0.83-3.95-2.4-4.5-3.5-0.55-1.1-1.02-6.61-1.03-12.25-0.03-8.69 0.26-10.67 1.95-12.99 1.1-1.5 3.48-3.15 5.29-3.66 1.81-0.5 5.09-0.93 7.29-0.95zm-4 12.85c0.28 0.55 2.07 1 4 1 2.44 0 3.5-0.45 3.5-1.5 0-0.83-0.22-2.18-0.5-3-0.28-0.83-1.61-1.5-2.97-1.5-1.46 0-2.89 0.82-3.5 2-0.57 1.1-0.81 2.45-0.53 3z"/>
		<path id="Path 1" class="s1" d="m7.11 3.25c-0.47 1.24-1.94 5.54-3.26 9.56-1.32 4.02-2.5 7.96-2.63 8.75-0.17 1.09 0.99 1.44 4.78 1.44 4.78 0 5.02-0.13 5.5-3 0.27-1.65 0.84-3 1.25-3 0.41 0.01 2.82 5.97 5.36 13.25l4.6 13.25c7.59 0.43 10.24 0.1 10.79-0.45q1-1-0.59-2.78c-0.87-0.97-4.19-9.42-7.37-18.77-3.18-9.35-6.18-17.79-6.66-18.75-0.66-1.32-2.12-1.75-5.9-1.75-4.29 0-5.14 0.33-5.87 2.25z"/>
		<path id="Path 2" class="s2" d="m33.55 10.25c-0.21 0.69-1.55 4.96-2.97 9.5-2.51 8.04-2.54 8.38-0.96 13.5 0.89 2.89 2.23 5.92 2.97 6.75 1.2 1.33 1.41 1.33 1.88 0 0.29-0.83 2.56-7.58 5.03-15 2.48-7.43 4.51-14.06 4.51-14.75q-0.01-1.25-5.03-1.25c-3.15 0-5.18 0.47-5.43 1.25z"/>
	</g>
</svg>